<svg xmlns="http://www.w3.org/2000/svg" viewBox="0 0 512 512" width="512" height="512">
  <defs>
    <filter id="shadow" x="-10%" y="-10%" width="120%" height="120%">
      <feDropShadow dx="0" dy="2" stdDeviation="8" flood-color="#000" flood-opacity="0.25"/>
    </filter>
  </defs>

  <!-- Background -->
  <rect width="512" height="512" rx="80" fill="#3B5998"/>

  <!-- QR modules -->
  <g filter="url(#shadow)">
  <rect x="214.64" y="74.45" width="12.62" height="12.62" rx="3.15" fill="#ffffff"/>
  <rect x="249.69" y="74.45" width="12.62" height="12.62" rx="3.15" fill="#ffffff"/>
  <rect x="284.74" y="74.45" width="12.62" height="12.62" rx="3.15" fill="#ffffff"/>
  <rect x="232.17" y="91.98" width="12.62" height="12.62" rx="3.15" fill="#ffffff"/>
  <rect x="284.74" y="91.98" width="12.62" height="12.62" rx="3.15" fill="#ffffff"/>
  <rect x="214.64" y="109.5" width="12.62" height="12.62" rx="3.15" fill="#ffffff"/>
  <rect x="249.69" y="109.5" width="12.62" height="12.62" rx="3.15" fill="#ffffff"/>
  <rect x="284.74" y="109.5" width="12.62" height="12.62" rx="3.15" fill="#ffffff"/>
  <rect x="232.17" y="127.02" width="12.62" height="12.62" rx="3.15" fill="#ffffff"/>
  <rect x="249.69" y="127.02" width="12.62" height="12.62" rx="3.15" fill="#ffffff"/>
  <rect x="284.74" y="127.02" width="12.62" height="12.62" rx="3.15" fill="#ffffff"/>
  <rect x="214.64" y="144.55" width="12.62" height="12.62" rx="3.15" fill="#ffffff"/>
  <rect x="267.21" y="144.55" width="12.62" height="12.62" rx="3.15" fill="#ffffff"/>
  <rect x="284.74" y="144.55" width="12.62" height="12.62" rx="3.15" fill="#ffffff"/>
  <rect x="232.17" y="162.07" width="12.62" height="12.62" rx="3.15" fill="#ffffff"/>
  <rect x="284.74" y="162.07" width="12.62" height="12.62" rx="3.15" fill="#ffffff"/>
  <rect x="214.64" y="179.59" width="12.62" height="12.62" rx="3.15" fill="#ffffff"/>
  <rect x="249.69" y="179.59" width="12.62" height="12.62" rx="3.15" fill="#ffffff"/>
  <rect x="284.74" y="179.59" width="12.62" height="12.62" rx="3.15" fill="#ffffff"/>
  <rect x="214.64" y="197.12" width="12.62" height="12.62" rx="3.15" fill="#ffffff"/>
  <rect x="232.17" y="197.12" width="12.62" height="12.62" rx="3.15" fill="#ffffff"/>
  <rect x="267.21" y="197.12" width="12.62" height="12.62" rx="3.15" fill="#ffffff"/>
  <rect x="74.45" y="214.64" width="12.62" height="12.62" rx="3.15" fill="#ffffff"/>
  <rect x="91.98" y="214.64" width="12.62" height="12.62" rx="3.15" fill="#ffffff"/>
  <rect x="127.02" y="214.64" width="12.62" height="12.62" rx="3.15" fill="#ffffff"/>
  <rect x="144.55" y="214.64" width="12.62" height="12.62" rx="3.15" fill="#ffffff"/>
  <rect x="179.59" y="214.64" width="12.62" height="12.62" rx="3.15" fill="#ffffff"/>
  <rect x="197.12" y="214.64" width="12.62" height="12.62" rx="3.15" fill="#ffffff"/>
  <rect x="232.17" y="214.64" width="12.62" height="12.62" rx="3.15" fill="#ffffff"/>
  <rect x="249.69" y="214.64" width="12.62" height="12.62" rx="3.15" fill="#ffffff"/>
  <rect x="284.74" y="214.64" width="12.62" height="12.62" rx="3.15" fill="#ffffff"/>
  <rect x="319.79" y="214.64" width="12.62" height="12.62" rx="3.15" fill="#ffffff"/>
  <rect x="337.31" y="214.64" width="12.62" height="12.62" rx="3.15" fill="#ffffff"/>
  <rect x="372.36" y="214.64" width="12.62" height="12.62" rx="3.15" fill="#ffffff"/>
  <rect x="389.88" y="214.64" width="12.62" height="12.62" rx="3.15" fill="#ffffff"/>
  <rect x="424.93" y="214.64" width="12.62" height="12.62" rx="3.15" fill="#ffffff"/>
  <rect x="91.98" y="232.17" width="12.62" height="12.62" rx="3.15" fill="#ffffff"/>
  <rect x="109.5" y="232.17" width="12.62" height="12.62" rx="3.15" fill="#ffffff"/>
  <rect x="162.07" y="232.17" width="12.62" height="12.62" rx="3.15" fill="#ffffff"/>
  <rect x="197.12" y="232.17" width="12.62" height="12.62" rx="3.15" fill="#ffffff"/>
  <rect x="214.64" y="232.17" width="12.62" height="12.62" rx="3.15" fill="#ffffff"/>
  <rect x="267.21" y="232.17" width="12.62" height="12.62" rx="3.15" fill="#ffffff"/>
  <rect x="302.26" y="232.17" width="12.62" height="12.62" rx="3.15" fill="#ffffff"/>
  <rect x="319.79" y="232.17" width="12.62" height="12.62" rx="3.15" fill="#ffffff"/>
  <rect x="354.83" y="232.17" width="12.62" height="12.62" rx="3.15" fill="#ffffff"/>
  <rect x="407.4" y="232.17" width="12.62" height="12.62" rx="3.15" fill="#ffffff"/>
  <rect x="74.45" y="249.69" width="12.62" height="12.62" rx="3.15" fill="#ffffff"/>
  <rect x="109.5" y="249.69" width="12.62" height="12.62" rx="3.15" fill="#ffffff"/>
  <rect x="127.02" y="249.69" width="12.62" height="12.62" rx="3.15" fill="#ffffff"/>
  <rect x="179.59" y="249.69" width="12.62" height="12.62" rx="3.15" fill="#ffffff"/>
  <rect x="214.64" y="249.69" width="12.62" height="12.62" rx="3.15" fill="#ffffff"/>
  <rect x="232.17" y="249.69" width="12.62" height="12.62" rx="3.15" fill="#ffffff"/>
  <rect x="284.74" y="249.69" width="12.62" height="12.62" rx="3.15" fill="#ffffff"/>
  <rect x="302.26" y="249.69" width="12.62" height="12.62" rx="3.15" fill="#ffffff"/>
  <rect x="337.31" y="249.69" width="12.62" height="12.62" rx="3.15" fill="#ffffff"/>
  <rect x="372.36" y="249.69" width="12.62" height="12.62" rx="3.15" fill="#ffffff"/>
  <rect x="389.88" y="249.69" width="12.62" height="12.62" rx="3.15" fill="#ffffff"/>
  <rect x="424.93" y="249.69" width="12.62" height="12.62" rx="3.15" fill="#ffffff"/>
  <rect x="91.98" y="267.21" width="12.62" height="12.62" rx="3.15" fill="#ffffff"/>
  <rect x="144.55" y="267.21" width="12.62" height="12.62" rx="3.15" fill="#ffffff"/>
  <rect x="162.07" y="267.21" width="12.62" height="12.62" rx="3.15" fill="#ffffff"/>
  <rect x="197.12" y="267.21" width="12.62" height="12.62" rx="3.15" fill="#ffffff"/>
  <rect x="249.69" y="267.21" width="12.62" height="12.62" rx="3.15" fill="#ffffff"/>
  <rect x="267.21" y="267.21" width="12.62" height="12.62" rx="3.15" fill="#ffffff"/>
  <rect x="319.79" y="267.21" width="12.62" height="12.62" rx="3.15" fill="#ffffff"/>
  <rect x="354.83" y="267.21" width="12.62" height="12.62" rx="3.15" fill="#ffffff"/>
  <rect x="407.4" y="267.21" width="12.62" height="12.62" rx="3.15" fill="#ffffff"/>
  <rect x="74.45" y="284.74" width="12.62" height="12.62" rx="3.15" fill="#ffffff"/>
  <rect x="109.5" y="284.74" width="12.62" height="12.62" rx="3.15" fill="#ffffff"/>
  <rect x="144.55" y="284.74" width="12.62" height="12.62" rx="3.15" fill="#ffffff"/>
  <rect x="179.59" y="284.74" width="12.62" height="12.62" rx="3.15" fill="#ffffff"/>
  <rect x="214.64" y="284.74" width="12.62" height="12.62" rx="3.15" fill="#ffffff"/>
  <rect x="249.69" y="284.74" width="12.62" height="12.62" rx="3.15" fill="#ffffff"/>
  <rect x="284.74" y="284.74" width="12.62" height="12.62" rx="3.15" fill="#ffffff"/>
  <rect x="319.79" y="284.74" width="12.62" height="12.62" rx="3.15" fill="#ffffff"/>
  <rect x="354.83" y="284.74" width="12.62" height="12.62" rx="3.15" fill="#ffffff"/>
  <rect x="389.88" y="284.74" width="12.62" height="12.62" rx="3.15" fill="#ffffff"/>
  <rect x="424.93" y="284.74" width="12.62" height="12.62" rx="3.15" fill="#ffffff"/>
  <rect x="214.64" y="302.26" width="12.62" height="12.62" rx="3.15" fill="#ffffff"/>
  <rect x="232.17" y="302.26" width="12.62" height="12.62" rx="3.15" fill="#ffffff"/>
  <rect x="267.21" y="302.26" width="12.62" height="12.62" rx="3.15" fill="#ffffff"/>
  <rect x="302.26" y="302.26" width="12.62" height="12.62" rx="3.15" fill="#ffffff"/>
  <rect x="354.83" y="302.26" width="12.62" height="12.62" rx="3.15" fill="#ffffff"/>
  <rect x="372.36" y="302.26" width="12.62" height="12.62" rx="3.15" fill="#ffffff"/>
  <rect x="407.4" y="302.26" width="12.62" height="12.62" rx="3.15" fill="#ffffff"/>
  <rect x="249.69" y="319.79" width="12.62" height="12.62" rx="3.15" fill="#ffffff"/>
  <rect x="284.74" y="319.79" width="12.62" height="12.62" rx="3.15" fill="#ffffff"/>
  <rect x="319.79" y="319.79" width="12.62" height="12.62" rx="3.15" fill="#ffffff"/>
  <rect x="337.31" y="319.79" width="12.62" height="12.62" rx="3.15" fill="#ffffff"/>
  <rect x="389.88" y="319.79" width="12.62" height="12.62" rx="3.15" fill="#ffffff"/>
  <rect x="424.93" y="319.79" width="12.62" height="12.62" rx="3.15" fill="#ffffff"/>
  <rect x="214.64" y="337.31" width="12.62" height="12.62" rx="3.15" fill="#ffffff"/>
  <rect x="232.17" y="337.31" width="12.62" height="12.62" rx="3.15" fill="#ffffff"/>
  <rect x="267.21" y="337.31" width="12.62" height="12.62" rx="3.15" fill="#ffffff"/>
  <rect x="302.26" y="337.31" width="12.62" height="12.62" rx="3.15" fill="#ffffff"/>
  <rect x="337.31" y="337.31" width="12.62" height="12.62" rx="3.15" fill="#ffffff"/>
  <rect x="354.83" y="337.31" width="12.62" height="12.62" rx="3.15" fill="#ffffff"/>
  <rect x="407.4" y="337.31" width="12.62" height="12.62" rx="3.15" fill="#ffffff"/>
  <rect x="214.64" y="354.83" width="12.62" height="12.62" rx="3.15" fill="#ffffff"/>
  <rect x="249.69" y="354.83" width="12.62" height="12.62" rx="3.15" fill="#ffffff"/>
  <rect x="284.74" y="354.83" width="12.62" height="12.62" rx="3.15" fill="#ffffff"/>
  <rect x="319.79" y="354.83" width="12.62" height="12.62" rx="3.15" fill="#ffffff"/>
  <rect x="372.36" y="354.83" width="12.62" height="12.62" rx="3.15" fill="#ffffff"/>
  <rect x="389.88" y="354.83" width="12.62" height="12.62" rx="3.15" fill="#ffffff"/>
  <rect x="424.93" y="354.83" width="12.62" height="12.62" rx="3.15" fill="#ffffff"/>
  <rect x="232.17" y="372.36" width="12.62" height="12.62" rx="3.15" fill="#ffffff"/>
  <rect x="249.69" y="372.36" width="12.62" height="12.62" rx="3.15" fill="#ffffff"/>
  <rect x="302.26" y="372.36" width="12.62" height="12.62" rx="3.15" fill="#ffffff"/>
  <rect x="337.31" y="372.36" width="12.62" height="12.62" rx="3.15" fill="#ffffff"/>
  <rect x="354.83" y="372.36" width="12.62" height="12.62" rx="3.15" fill="#ffffff"/>
  <rect x="407.4" y="372.36" width="12.62" height="12.62" rx="3.15" fill="#ffffff"/>
  <rect x="214.64" y="389.88" width="12.62" height="12.62" rx="3.15" fill="#ffffff"/>
  <rect x="267.21" y="389.88" width="12.62" height="12.62" rx="3.15" fill="#ffffff"/>
  <rect x="284.74" y="389.88" width="12.62" height="12.62" rx="3.15" fill="#ffffff"/>
  <rect x="319.79" y="389.88" width="12.62" height="12.62" rx="3.15" fill="#ffffff"/>
  <rect x="372.36" y="389.88" width="12.62" height="12.62" rx="3.15" fill="#ffffff"/>
  <rect x="389.88" y="389.88" width="12.62" height="12.62" rx="3.15" fill="#ffffff"/>
  <rect x="424.93" y="389.88" width="12.62" height="12.62" rx="3.15" fill="#ffffff"/>
  <rect x="232.17" y="407.4" width="12.62" height="12.62" rx="3.15" fill="#ffffff"/>
  <rect x="267.21" y="407.4" width="12.62" height="12.62" rx="3.15" fill="#ffffff"/>
  <rect x="302.26" y="407.4" width="12.62" height="12.62" rx="3.15" fill="#ffffff"/>
  <rect x="337.31" y="407.4" width="12.62" height="12.62" rx="3.15" fill="#ffffff"/>
  <rect x="354.83" y="407.4" width="12.62" height="12.62" rx="3.15" fill="#ffffff"/>
  <rect x="389.88" y="407.4" width="12.62" height="12.62" rx="3.15" fill="#ffffff"/>
  <rect x="407.4" y="407.4" width="12.62" height="12.62" rx="3.15" fill="#ffffff"/>
  <rect x="214.64" y="424.93" width="12.62" height="12.62" rx="3.15" fill="#ffffff"/>
  <rect x="249.69" y="424.93" width="12.62" height="12.62" rx="3.15" fill="#ffffff"/>
  <rect x="284.74" y="424.93" width="12.62" height="12.62" rx="3.15" fill="#ffffff"/>
  <rect x="319.79" y="424.93" width="12.62" height="12.62" rx="3.15" fill="#ffffff"/>
  <rect x="354.83" y="424.93" width="12.62" height="12.62" rx="3.15" fill="#ffffff"/>
  <rect x="389.88" y="424.93" width="12.62" height="12.62" rx="3.15" fill="#ffffff"/>
  <rect x="424.93" y="424.93" width="12.62" height="12.62" rx="3.15" fill="#ffffff"/>

  <rect x="74.45"  y="74.45"  width="117.76"  height="117.76"  rx="4" fill="#fff"/>
  <rect x="91.98"  y="91.98"  width="82.72"  height="82.72"  rx="3" fill="#3B5998"/>
  <rect x="109.5" y="109.5" width="47.67" height="47.67" rx="3" fill="#fff"/>
  <rect x="319.79"  y="74.45"  width="117.76"  height="117.76"  rx="4" fill="#fff"/>
  <rect x="337.31"  y="91.98"  width="82.72"  height="82.72"  rx="3" fill="#3B5998"/>
  <rect x="354.83" y="109.5" width="47.67" height="47.67" rx="3" fill="#fff"/>
  <rect x="74.45"  y="319.79"  width="117.76"  height="117.76"  rx="4" fill="#fff"/>
  <rect x="91.98"  y="337.31"  width="82.72"  height="82.72"  rx="3" fill="#3B5998"/>
  <rect x="109.5" y="354.83" width="47.67" height="47.67" rx="3" fill="#fff"/>
  </g>

  <!-- Outline around QR area -->
  <rect x="28" y="28" width="456" height="456" rx="80"
        fill="none" stroke="rgba(255,255,255,0.18)" stroke-width="2"/>
</svg>